HIERARCHY
ROOT Hips
{
	OFFSET 0.000000 35.082581 0.000000
	CHANNELS 6 Xposition Yposition Zposition Xrotation Yrotation Zrotation 
	JOINT Spine
	{
		OFFSET 0.000000 6.876099 0.125700
		CHANNELS 3 Xrotation Yrotation Zrotation
		JOINT Spine1
		{
			OFFSET 0.000000 5.730043 0.104720
			CHANNELS 3 Xrotation Yrotation Zrotation
			JOINT Spine1_split
			{
				OFFSET 0.000000 5.730043 0.104720
				CHANNELS 3 Xrotation Yrotation Zrotation
				JOINT Spine2
				{
					OFFSET 0.000000 5.730043 0.104720
					CHANNELS 3 Xrotation Yrotation Zrotation
					JOINT Neck
					{
						OFFSET 0.000000 10.314075 0.188496
						CHANNELS 3 Xrotation Yrotation Zrotation
						JOINT Head
						{
							OFFSET 0.000000 7.643700 -2.377400
							CHANNELS 3 Xrotation Yrotation Zrotation
							JOINT HeadTop_End
							{
								OFFSET 0.000000 43.788605 -13.619600
								CHANNELS 3 Xrotation Yrotation Zrotation
								End Site
								{
									OFFSET 0.000000 0.000000 0.000000
								}
							}
						}
					}
					JOINT LeftShoulder
					{
						OFFSET 2.196100 4.412489 0.087492
						CHANNELS 3 Xrotation Yrotation Zrotation
						JOINT LeftShoulder_split
						{
							OFFSET 2.196100 4.412489 0.087492
							CHANNELS 3 Xrotation Yrotation Zrotation
							JOINT LeftArm
							{
								OFFSET 8.771219 -2.981674 -0.026999
								CHANNELS 3 Xrotation Yrotation Zrotation
								JOINT LeftForeArm
								{
									OFFSET 8.512804 0.000000 -0.000000
									CHANNELS 3 Xrotation Yrotation Zrotation
									JOINT LeftHand
									{
										OFFSET 18.484802 0.000000 -0.000000
										CHANNELS 3 Xrotation Yrotation Zrotation
										JOINT LeftHandThumb1
										{
											OFFSET 2.499420 -1.158070 2.653252
											CHANNELS 3 Xrotation Yrotation Zrotation
											JOINT LeftHandThumb2
											{
												OFFSET 2.370079 -1.368366 1.368366
												CHANNELS 3 Xrotation Yrotation Zrotation
												JOINT LeftHandThumb3
												{
													OFFSET 2.676727 -1.545410 1.545409
													CHANNELS 3 Xrotation Yrotation Zrotation
													JOINT LeftHandThumb4
													{
														OFFSET 1.692226 -0.977005 0.977007
														CHANNELS 3 Xrotation Yrotation Zrotation
														End Site
														{
															OFFSET 0.000000 0.000000 0.000000
														}
													}
												}
											}
										}
										JOINT LeftHandIndex1
										{
											OFFSET 7.924831 -0.457527 2.345128
											CHANNELS 3 Xrotation Yrotation Zrotation
											JOINT LeftHandIndex2
											{
												OFFSET 3.643303 0.000000 0.000000
												CHANNELS 3 Xrotation Yrotation Zrotation
												JOINT LeftHandIndex3
												{
													OFFSET 3.810799 0.000000 0.000000
													CHANNELS 3 Xrotation Yrotation Zrotation
													JOINT LeftHandIndex4
													{
														OFFSET 2.403702 0.000000 0.000000
														CHANNELS 3 Xrotation Yrotation Zrotation
														End Site
														{
															OFFSET 0.000000 0.000000 0.000000
														}
													}
												}
											}
										}
										JOINT LeftHandMiddle1
										{
											OFFSET 8.563995 0.000000 -0.000000
											CHANNELS 3 Xrotation Yrotation Zrotation
											JOINT LeftHandMiddle2
											{
												OFFSET 3.861618 0.000000 0.000000
												CHANNELS 3 Xrotation Yrotation Zrotation
												JOINT LeftHandMiddle3
												{
													OFFSET 3.701603 0.000000 0.000000
													CHANNELS 3 Xrotation Yrotation Zrotation
													JOINT LeftHandMiddle4
													{
														OFFSET 2.322544 0.000000 0.000000
														CHANNELS 3 Xrotation Yrotation Zrotation
														End Site
														{
															OFFSET 0.000000 0.000000 0.000000
														}
													}
												}
											}
										}
										JOINT LeftHandRing1
										{
											OFFSET 8.426460 -0.424637 -3.286992
											CHANNELS 3 Xrotation Yrotation Zrotation
											JOINT LeftHandRing2
											{
												OFFSET 3.126408 0.000000 0.000000
												CHANNELS 3 Xrotation Yrotation Zrotation
												JOINT LeftHandRing3
												{
													OFFSET 3.085026 0.000000 0.000000
													CHANNELS 3 Xrotation Yrotation Zrotation
													JOINT LeftHandRing4
													{
														OFFSET 1.644005 0.000000 0.000000
														CHANNELS 3 Xrotation Yrotation Zrotation
														End Site
														{
															OFFSET 0.000000 0.000000 0.000000
														}
													}
												}
											}
										}
									}
								}
							}
						}
					}
					JOINT RightShoulder
					{
						OFFSET -2.196100 4.412496 0.070690
						CHANNELS 3 Xrotation Yrotation Zrotation
						JOINT RightShoulder_split
						{
							OFFSET -2.196100 4.412496 0.070690
							CHANNELS 3 Xrotation Yrotation Zrotation
							JOINT RightArm
							{
								OFFSET -8.771282 -2.981682 -0.094208
								CHANNELS 3 Xrotation Yrotation Zrotation
								JOINT RightForeArm
								{
									OFFSET -8.494598 0.000000 0.000000
									CHANNELS 3 Xrotation Yrotation Zrotation
									JOINT RightHand
									{
										OFFSET -18.483803 0.000000 0.000001
										CHANNELS 3 Xrotation Yrotation Zrotation
										JOINT RightHandThumb1
										{
											OFFSET -2.527351 -1.008072 2.575253
											CHANNELS 3 Xrotation Yrotation Zrotation
											JOINT RightHandThumb2
											{
												OFFSET -2.321518 -1.340328 1.340329
												CHANNELS 3 Xrotation Yrotation Zrotation
												JOINT RightHandThumb3
												{
													OFFSET -2.657753 -1.534454 1.534455
													CHANNELS 3 Xrotation Yrotation Zrotation
													JOINT RightHandThumb4
													{
														OFFSET -1.807510 -1.043568 1.043567
														CHANNELS 3 Xrotation Yrotation Zrotation
														End Site
														{
															OFFSET 0.000000 0.000000 0.000000
														}
													}
												}
											}
										}
										JOINT RightHandIndex1
										{
											OFFSET -8.811420 0.015533 2.887987
											CHANNELS 3 Xrotation Yrotation Zrotation
											JOINT RightHandIndex2
											{
												OFFSET -3.537502 0.000000 0.000000
												CHANNELS 3 Xrotation Yrotation Zrotation
												JOINT RightHandIndex3
												{
													OFFSET -3.356201 0.000000 0.000000
													CHANNELS 3 Xrotation Yrotation Zrotation
													JOINT RightHandIndex4
													{
														OFFSET -1.933098 0.000000 0.000000
														CHANNELS 3 Xrotation Yrotation Zrotation
														End Site
														{
															OFFSET 0.000000 0.000000 0.000000
														}
													}
												}
											}
										}
										JOINT RightHandMiddle1
										{
											OFFSET -8.178135 0.000000 0.000000
											CHANNELS 3 Xrotation Yrotation Zrotation
											JOINT RightHandMiddle2
											{
												OFFSET -3.901302 0.000000 0.000000
												CHANNELS 3 Xrotation Yrotation Zrotation
												JOINT RightHandMiddle3
												{
													OFFSET -3.909599 0.000000 0.000000
													CHANNELS 3 Xrotation Yrotation Zrotation
													JOINT RightHandMiddle4
													{
														OFFSET -2.376003 0.000000 0.000000
														CHANNELS 3 Xrotation Yrotation Zrotation
														End Site
														{
															OFFSET 0.000000 0.000000 0.000000
														}
													}
												}
											}
										}
										JOINT RightHandRing1
										{
											OFFSET -7.559013 0.014137 -2.865403
											CHANNELS 3 Xrotation Yrotation Zrotation
											JOINT RightHandRing2
											{
												OFFSET -3.449306 0.000000 0.000000
												CHANNELS 3 Xrotation Yrotation Zrotation
												JOINT RightHandRing3
												{
													OFFSET -3.362106 0.000000 0.000000
													CHANNELS 3 Xrotation Yrotation Zrotation
													JOINT RightHandRing4
													{
														OFFSET -2.076401 0.000000 0.000000
														CHANNELS 3 Xrotation Yrotation Zrotation
														End Site
														{
															OFFSET 0.000000 0.000000 0.000000
														}
													}
												}
											}
										}
									}
								}
							}
						}
					}
				}
			}
		}
	}
	JOINT LeftUpLeg
	{
		OFFSET 10.205400 -3.823500 0.155100
		CHANNELS 3 Xrotation Yrotation Zrotation
		JOINT LeftLeg
		{
			OFFSET 0.708757 -12.982077 0.567790
			CHANNELS 3 Xrotation Yrotation Zrotation
			JOINT LeftFoot
			{
				OFFSET -0.708756 -10.717838 -2.184338
				CHANNELS 3 Xrotation Yrotation Zrotation
				JOINT LeftToeBase
				{
					OFFSET 0.108149 -7.191104 7.560241
					CHANNELS 3 Xrotation Yrotation Zrotation
					JOINT LeftToe_End
					{
						OFFSET 0.070230 0.081724 4.490308
						CHANNELS 3 Xrotation Yrotation Zrotation
						End Site
						{
							OFFSET 0.000000 0.000000 0.000000
						}
					}
				}
			}
		}
	}
	JOINT RightUpLeg
	{
		OFFSET -10.205400 -3.823500 0.005500
		CHANNELS 3 Xrotation Yrotation Zrotation
		JOINT RightLeg
		{
			OFFSET -0.708756 -12.982134 0.610632
			CHANNELS 3 Xrotation Yrotation Zrotation
			JOINT RightFoot
			{
				OFFSET 0.708754 -10.717769 -1.945823
				CHANNELS 3 Xrotation Yrotation Zrotation
				JOINT RightToeBase
				{
					OFFSET -0.108140 -7.191069 7.372968
					CHANNELS 3 Xrotation Yrotation Zrotation
					JOINT RightToe_End
					{
						OFFSET -0.070227 0.081735 4.479403
						CHANNELS 3 Xrotation Yrotation Zrotation
						End Site
						{
							OFFSET 0.000000 0.000000 0.000000
						}
					}
				}
			}
		}
	}
}
MOTION
Frames: 5
Frame Time: 0.016667
0.966726 27.253590 -0.978737 -5.397675 -46.011382 -0.112447 9.463317 6.952819 -1.707177 2.187716 0.989897 -0.915630 0.000000 0.000000 0.000000 2.202829 0.982769 -0.894152 0.084653 13.220556 4.538679 8.920927 20.138140 -4.130237 0.000001 -0.000000 0.000000 1.117174 3.546336 -8.633445 0.000000 0.000000 0.000000 -53.487024 4.935514 -51.502994 0.000025 -106.358087 0.000018 1.988600 -7.706153 -15.869250 -6.141211 -11.690801 -6.761700 9.914125 42.595512 3.409864 -0.422813 8.108079 27.509108 -0.000006 -0.000004 0.000001 0.255325 3.378226 -45.814351 5.654075 5.847752 -88.067469 2.162131 4.544816 -50.866372 0.000001 -0.000000 0.000002 -0.461460 3.841594 -39.722683 6.450749 5.820379 -95.892878 2.182922 4.561565 -51.127733 0.000001 -0.000000 0.000003 0.469722 4.966832 -39.799441 8.181033 5.368628 -113.502977 3.200478 5.218134 -63.022975 0.000000 -0.000001 0.000001 3.036134 13.027193 -5.371387 0.000000 0.000000 0.000000 -48.713712 27.172830 83.457071 -0.000021 105.988294 0.000003 -8.345370 17.548098 8.775675 -7.341096 13.749659 7.412336 9.855772 -44.489103 -3.903259 -0.115781 -14.513098 -28.973874 0.000002 -0.000004 0.000001 -0.124371 -2.384780 45.108868 4.500591 -4.654532 88.071178 1.723222 -3.618373 50.920112 0.000000 0.000002 -0.000001 -0.761631 -2.932903 39.031072 5.133897 -4.632764 95.881642 1.739758 -3.631685 51.181350 0.000001 -0.000001 0.000004 0.154761 -4.068812 39.122685 6.509741 -4.273576 113.462891 2.549582 -4.153919 63.067330 0.000000 -0.000000 -0.000002 -38.222708 0.278065 24.761907 64.806993 -10.597489 3.829559 -23.765145 -5.113882 -21.315801 -1.594046 0.000025 0.000006 -0.000000 0.000002 0.000000 -13.650838 -9.632079 -38.353817 66.374754 0.334409 -6.381266 -39.258992 -15.971557 30.409706 -0.013007 0.000010 0.000004 0.000000 -0.000000 -0.000000 
1.004547 27.302296 -1.014265 -5.726728 -46.187942 -0.129638 9.275180 7.054938 -1.692429 2.640259 1.191269 -1.060358 0.000000 0.000000 0.000000 2.654104 1.184991 -1.039338 0.357707 12.542798 4.092549 8.127886 19.984273 -4.225181 0.000000 0.000000 0.000000 0.981719 3.207185 -8.086521 0.000000 0.000000 0.000000 -52.083522 4.488245 -52.459674 -0.000007 -105.430759 -0.000003 1.015786 -5.582484 -15.643298 -6.141208 -11.690801 -6.761702 9.914117 42.595508 3.409868 -0.422810 8.108078 27.509108 -0.000005 -0.000002 -0.000006 0.255325 3.378225 -45.814348 5.654082 5.847753 -88.067469 2.162133 4.544818 -50.866369 0.000001 -0.000001 0.000001 -0.461459 3.841595 -39.722679 6.450751 5.820376 -95.892871 2.182919 4.561566 -51.127733 0.000001 0.000000 0.000000 0.469722 4.966833 -39.799437 8.181033 5.368630 -113.502977 3.200478 5.218131 -63.022982 -0.000000 0.000000 -0.000000 3.469389 13.680564 -5.027469 0.000000 0.000000 0.000000 -48.559244 27.224004 81.465743 -0.000032 106.431020 0.000016 -8.957043 17.278915 9.150930 -7.341097 13.749665 7.412338 9.855778 -44.489103 -3.903261 -0.115784 -14.513097 -28.973874 0.000002 0.000000 0.000005 -0.124371 -2.384778 45.108868 4.500588 -4.654534 88.071171 1.723220 -3.618370 50.920109 0.000000 -0.000001 -0.000001 -0.761630 -2.932898 39.031072 5.133898 -4.632765 95.881642 1.739758 -3.631686 51.181350 0.000000 -0.000001 0.000003 0.154760 -4.068809 39.122685 6.509739 -4.273575 113.462891 2.549578 -4.153922 63.067330 -0.000003 -0.000002 0.000001 -37.661373 0.571649 24.468794 64.210813 -10.320444 3.851589 -23.497102 -5.115269 -21.410884 -1.594047 0.000028 0.000003 -0.000000 0.000000 0.000000 -13.755619 -9.372980 -38.628330 66.469263 0.444524 -6.380493 -39.121807 -15.878595 30.320340 -0.013007 0.000008 0.000003 0.000000 -0.000001 0.000000 
1.043697 27.352386 -1.045122 -5.977322 -46.401300 -0.017897 9.087454 7.309165 -1.824018 3.124196 1.480132 -1.284677 0.000000 0.000000 0.000000 3.136775 1.474854 -1.263944 0.728167 11.771772 3.506737 6.906011 19.480695 -3.816386 -0.000001 0.000000 0.000000 0.863357 2.875887 -7.567594 0.000000 0.000000 0.000000 -50.820419 3.482947 -53.809757 0.000036 -104.407754 0.000035 -0.646184 -3.189671 -15.370724 -6.141213 -11.690797 -6.761694 9.914124 42.595505 3.409866 -0.422816 8.108079 27.509108 -0.000001 -0.000001 -0.000002 0.255325 3.378232 -45.814348 5.654072 5.847754 -88.067469 2.162135 4.544818 -50.866372 -0.000000 -0.000003 0.000000 -0.461459 3.841596 -39.722693 6.450745 5.820379 -95.892878 2.182922 4.561564 -51.127733 0.000000 0.000000 0.000002 0.469722 4.966835 -39.799444 8.181036 5.368628 -113.502977 3.200481 5.218135 -63.022975 0.000001 -0.000001 0.000001 3.937036 14.543566 -4.656808 0.000000 0.000000 0.000000 -48.082097 26.964829 78.972485 -0.000003 107.157711 -0.000011 -9.547679 17.015685 9.282243 -7.341094 13.749664 7.412337 9.855769 -44.489100 -3.903266 -0.115776 -14.513095 -28.973867 -0.000001 0.000001 0.000002 -0.124371 -2.384781 45.108868 4.500589 -4.654531 88.071178 1.723222 -3.618371 50.920112 -0.000000 0.000000 0.000001 -0.761631 -2.932902 39.031072 5.133894 -4.632764 95.881642 1.739759 -3.631685 51.181353 0.000000 0.000000 -0.000001 0.154760 -4.068815 39.122682 6.509734 -4.273578 113.462891 2.549581 -4.153924 63.067324 0.000000 0.000002 0.000000 -37.034464 0.836173 24.072939 63.516538 -9.915428 3.800620 -23.219272 -5.118347 -21.533978 -1.594048 0.000022 0.000001 -0.000000 0.000004 0.000000 -13.932347 -8.991214 -38.983865 66.621692 0.548488 -6.373483 -38.983656 -15.811353 30.269325 -0.013006 0.000011 0.000003 0.000000 0.000001 -0.000000 
1.079158 27.400826 -1.075158 -6.279057 -46.467570 0.359338 8.795067 7.998566 -2.136213 3.590458 1.988630 -1.614737 0.000000 0.000000 0.000000 3.602246 1.984432 -1.593469 1.274046 10.754600 2.693521 6.275619 17.988041 -3.563895 -0.000000 -0.000000 -0.000000 0.788838 2.666412 -7.212008 0.000000 0.000000 0.000000 -49.654652 0.704927 -56.253315 -0.000031 -102.244694 -0.000027 -2.418240 -0.428785 -15.025520 -6.141210 -11.690801 -6.761695 9.914113 42.595508 3.409861 -0.422806 8.108080 27.509108 -0.000003 -0.000003 -0.000002 0.255327 3.378225 -45.814348 5.654077 5.847753 -88.067469 2.162134 4.544817 -50.866372 0.000001 -0.000001 -0.000003 -0.461458 3.841598 -39.722679 6.450750 5.820377 -95.892871 2.182919 4.561564 -51.127729 0.000000 -0.000000 -0.000000 0.469725 4.966833 -39.799444 8.181038 5.368629 -113.502970 3.200478 5.218134 -63.022975 0.000003 0.000000 0.000000 4.427761 15.576520 -4.226219 0.000000 0.000000 0.000000 -46.369369 25.864357 75.178328 -0.000078 108.408373 0.000054 -10.196604 16.852064 9.256429 -7.341102 13.749657 7.412342 9.855767 -44.489110 -3.903257 -0.115779 -14.513097 -28.973874 -0.000003 0.000000 0.000006 -0.124371 -2.384778 45.108874 4.500588 -4.654535 88.071171 1.723223 -3.618372 50.920116 0.000000 0.000003 0.000001 -0.761632 -2.932902 39.031068 5.133897 -4.632764 95.881642 1.739759 -3.631685 51.181346 -0.000000 0.000001 0.000000 0.154760 -4.068812 39.122685 6.509739 -4.273575 113.462884 2.549581 -4.153923 63.067330 0.000001 -0.000000 -0.000002 -36.263032 1.205194 23.275604 62.465468 -9.402963 3.665426 -22.694460 -5.216419 -21.608340 -1.594041 0.000029 0.000005 0.000000 0.000001 0.000000 -13.870023 -8.467315 -39.646591 66.904722 0.750819 -6.325014 -38.998608 -16.084908 30.273973 -0.013008 0.000010 0.000003 0.000000 -0.000001 -0.000000 
1.103276 27.441147 -1.112598 -6.837302 -46.170378 1.179400 8.189270 9.375516 -2.461237 3.949817 2.831921 -1.994073 0.000000 0.000000 0.000000 3.961718 2.828647 -1.970930 2.071402 9.285618 1.530602 7.438203 14.664102 -4.681023 0.000001 -0.000000 0.000000 0.791110 2.710392 -7.177354 0.000000 0.000000 0.000000 -48.569899 -4.910038 -60.701428 0.000010 -97.495794 0.000024 -3.290963 2.878789 -14.638861 -6.141212 -11.690801 -6.761698 9.914128 42.595505 3.409857 -0.422803 8.108077 27.509108 -0.000001 0.000001 -0.000006 0.255326 3.378224 -45.814348 5.654083 5.847752 -88.067469 2.162137 4.544817 -50.866376 -0.000001 0.000001 -0.000002 -0.461458 3.841592 -39.722679 6.450754 5.820376 -95.892878 2.182921 4.561564 -51.127729 0.000000 0.000000 -0.000001 0.469726 4.966827 -39.799447 8.181041 5.368627 -113.502977 3.200478 5.218131 -63.022975 0.000000 0.000001 -0.000000 4.917526 16.582046 -3.718180 0.000000 0.000000 0.000000 -42.928381 23.446347 69.552199 -0.000033 110.157605 -0.000011 -11.049486 16.602247 9.503754 -7.341098 13.749663 7.412338 9.855765 -44.489107 -3.903258 -0.115776 -14.513095 -28.973867 0.000002 0.000006 0.000004 -0.124373 -2.384782 45.108871 4.500591 -4.654532 88.071178 1.723222 -3.618372 50.920116 -0.000001 0.000003 -0.000001 -0.761631 -2.932899 39.031068 5.133902 -4.632765 95.881642 1.739760 -3.631688 51.181346 0.000001 0.000001 0.000000 0.154760 -4.068812 39.122688 6.509735 -4.273580 113.462884 2.549578 -4.153923 63.067330 -0.000001 -0.000001 0.000001 -35.177732 1.881516 21.694569 60.663596 -8.845021 3.426153 -21.591591 -5.520354 -21.524101 -1.594048 0.000025 0.000004 -0.000000 -0.000001 0.000000 -13.120151 -7.746727 -40.902677 67.452544 1.407352 -6.189694 -39.422336 -17.313222 30.190396 -0.013011 0.000011 0.000003 -0.000000 0.000001 -0.000000 
